<svg width="24" height="24" viewBox="0 0 24 24" fill="none" xmlns="http://www.w3.org/2000/svg">
<g id="Done_round_fill">
<g id="Line 1 (Stroke)">
<mask id="path-1-inside-1_3100_19993" fill="white">
<path fill-rule="evenodd" clip-rule="evenodd" d="M18.6332 5.22607C19.0607 5.5758 19.1237 6.20582 18.7739 6.63327L10.381 16.8913C9.70231 17.7208 8.49044 17.8679 7.63306 17.2248L4.39997 14.8C3.95814 14.4687 3.8686 13.8419 4.19997 13.4C4.53134 12.9582 5.15814 12.8687 5.59997 13.2L8.83306 15.6248L17.226 5.36679C17.5757 4.93935 18.2058 4.87635 18.6332 5.22607Z"/>
</mask>
<path d="M18.7739 6.63327L26.5135 12.9656L26.5135 12.9656L18.7739 6.63327ZM18.6332 5.22607L12.3008 12.9656L12.3008 12.9656L18.6332 5.22607ZM10.381 16.8913L2.6414 10.5589L2.6414 10.5589L10.381 16.8913ZM7.63306 17.2248L1.63306 25.2248L1.63306 25.2248L7.63306 17.2248ZM4.39997 14.8L10.4 6.80003L10.4 6.80003L4.39997 14.8ZM5.59997 13.2L-0.400034 21.2L-0.40003 21.2L5.59997 13.2ZM8.83306 15.6248L2.83306 23.6248L10.5022 29.3767L16.5726 21.9572L8.83306 15.6248ZM17.226 5.36679L24.9656 11.6992L24.9656 11.6992L17.226 5.36679ZM26.5135 12.9656C30.3605 8.26375 29.6675 1.3335 24.9656 -2.5135L12.3008 12.9656C8.45382 9.8181 7.88681 4.14789 11.0344 0.30089L26.5135 12.9656ZM18.1205 23.2237L26.5135 12.9656L11.0344 0.30089L2.6414 10.5589L18.1205 23.2237ZM1.63306 25.2248C6.77736 29.0831 14.0486 28.2005 18.1205 23.2237L2.6414 10.5589C5.35604 7.24105 10.2035 6.6527 13.6331 9.22484L1.63306 25.2248ZM-1.60003 22.8L1.63306 25.2248L13.6331 9.22485L10.4 6.80003L-1.60003 22.8ZM-3.80003 7.40003C-7.44512 12.2601 -6.46013 19.155 -1.60003 22.8L10.4 6.80003C14.3764 9.78236 15.1823 15.4236 12.2 19.4L-3.80003 7.40003ZM11.6 5.20003C6.73988 1.55496 -0.154943 2.53991 -3.80003 7.40003L12.2 19.4C9.21762 23.3765 3.5764 24.1824 -0.400034 21.2L11.6 5.20003ZM14.8331 7.62485L11.6 5.20003L-0.40003 21.2L2.83306 23.6248L14.8331 7.62485ZM9.48644 -0.965585L1.09349 9.29247L16.5726 21.9572L24.9656 11.6992L9.48644 -0.965585ZM24.9656 -2.5135C20.2637 -6.3605 13.3334 -5.66748 9.48644 -0.965585L24.9656 11.6992C21.818 15.5462 16.1478 16.1132 12.3008 12.9656L24.9656 -2.5135Z" fill="#1E3DD7" mask="url(#path-1-inside-1_3100_19993)"/>
</g>
</g>
</svg>
