<svg width="105" height="29" viewBox="0 0 105 29" fill="none" xmlns="http://www.w3.org/2000/svg">
<path d="M0.784 13.6981C0.784 12.0928 1.08267 10.6834 1.68 9.47009C2.296 8.25675 3.12667 7.32342 4.172 6.67009C5.21733 6.01675 6.384 5.69008 7.672 5.69008C8.77333 5.69008 9.73467 5.91408 10.556 6.36208C11.396 6.81009 12.04 7.39809 12.488 8.12609V5.91409H17.276V21.5381H12.488V19.3261C12.0213 20.0541 11.368 20.6421 10.528 21.0901C9.70667 21.5381 8.74533 21.7621 7.644 21.7621C6.37467 21.7621 5.21733 21.4354 4.172 20.7821C3.12667 20.1101 2.296 19.1674 1.68 17.9541C1.08267 16.7221 0.784 15.3034 0.784 13.6981ZM12.488 13.7261C12.488 12.5314 12.152 11.5888 11.48 10.8981C10.8267 10.2074 10.024 9.86209 9.072 9.86209C8.12 9.86209 7.308 10.2074 6.636 10.8981C5.98267 11.5701 5.656 12.5034 5.656 13.6981C5.656 14.8928 5.98267 15.8448 6.636 16.5541C7.308 17.2448 8.12 17.5901 9.072 17.5901C10.024 17.5901 10.8267 17.2448 11.48 16.5541C12.152 15.8634 12.488 14.9208 12.488 13.7261ZM36.6999 5.91409L26.8999 28.9581H21.7479L25.3319 21.0061L18.9759 5.91409H24.3239L27.9359 15.6861L31.5199 5.91409H36.6999ZM43.2193 0.818086V21.5381H38.4313V0.818086H43.2193ZM53.8011 21.7621C52.2705 21.7621 50.8891 21.4354 49.6571 20.7821C48.4438 20.1288 47.4825 19.1954 46.7731 17.9821C46.0825 16.7688 45.7371 15.3501 45.7371 13.7261C45.7371 12.1208 46.0918 10.7114 46.8011 9.49809C47.5105 8.26609 48.4811 7.32342 49.7131 6.67009C50.9451 6.01675 52.3265 5.69008 53.8571 5.69008C55.3878 5.69008 56.7691 6.01675 58.0011 6.67009C59.2331 7.32342 60.2038 8.26609 60.9131 9.49809C61.6225 10.7114 61.9771 12.1208 61.9771 13.7261C61.9771 15.3314 61.6131 16.7501 60.8851 17.9821C60.1758 19.1954 59.1958 20.1288 57.9451 20.7821C56.7131 21.4354 55.3318 21.7621 53.8011 21.7621ZM53.8011 17.6181C54.7158 17.6181 55.4905 17.2821 56.1251 16.6101C56.7785 15.9381 57.1051 14.9768 57.1051 13.7261C57.1051 12.4754 56.7878 11.5141 56.1531 10.8421C55.5371 10.1701 54.7718 9.83409 53.8571 9.83409C52.9238 9.83409 52.1491 10.1701 51.5331 10.8421C50.9171 11.4954 50.6091 12.4568 50.6091 13.7261C50.6091 14.9768 50.9078 15.9381 51.5051 16.6101C52.1211 17.2821 52.8865 17.6181 53.8011 17.6181ZM71.6293 21.7621C70.0986 21.7621 68.7173 21.4354 67.4853 20.7821C66.2719 20.1288 65.3106 19.1954 64.6013 17.9821C63.9106 16.7688 63.5653 15.3501 63.5653 13.7261C63.5653 12.1208 63.9199 10.7114 64.6292 9.49809C65.3386 8.26609 66.3093 7.32342 67.5413 6.67009C68.7733 6.01675 70.1546 5.69008 71.6853 5.69008C73.2159 5.69008 74.5973 6.01675 75.8293 6.67009C77.0613 7.32342 78.0319 8.26609 78.7413 9.49809C79.4506 10.7114 79.8053 12.1208 79.8053 13.7261C79.8053 15.3314 79.4413 16.7501 78.7133 17.9821C78.0039 19.1954 77.0239 20.1288 75.7733 20.7821C74.5413 21.4354 73.1599 21.7621 71.6293 21.7621ZM71.6293 17.6181C72.5439 17.6181 73.3186 17.2821 73.9533 16.6101C74.6066 15.9381 74.9333 14.9768 74.9333 13.7261C74.9333 12.4754 74.6159 11.5141 73.9813 10.8421C73.3653 10.1701 72.5999 9.83409 71.6853 9.83409C70.7519 9.83409 69.9773 10.1701 69.3613 10.8421C68.7453 11.4954 68.4373 12.4568 68.4373 13.7261C68.4373 14.9768 68.7359 15.9381 69.3333 16.6101C69.9493 17.2821 70.7146 17.6181 71.6293 17.6181ZM104.773 5.91409L100.545 21.5381H95.2534L92.7894 11.4021L90.2414 21.5381H84.9774L80.7214 5.91409H85.5094L87.7214 17.0861L90.3534 5.91409H95.4214L98.0814 17.0301L100.265 5.91409H104.773Z" fill="#3369F4"/>
</svg>
