<svg width="41" height="53" viewBox="0 0 41 53" fill="none" xmlns="http://www.w3.org/2000/svg">
<path d="M23.7249 7.11708C23.9635 7.19634 24.2022 7.2756 24.4481 7.35726C26.6041 8.17374 29.9639 10.0964 30.9924 12.3175C31.0606 13.105 30.6559 13.6421 30.2653 14.29C30.1439 14.4986 30.1439 14.4986 30.0201 14.7114C29.761 15.1552 29.4983 15.5967 29.2355 16.0382C29.0599 16.3371 28.8846 16.6362 28.7096 16.9354C28.3893 17.4827 28.0674 18.0289 27.7441 18.5744C27.5408 18.9214 27.3427 19.2724 27.1656 19.6341C27.0237 19.6341 26.8818 19.6341 26.7355 19.6341C26.4627 19.2358 26.2056 18.8264 25.956 18.4126C24.5349 16.2034 22.9497 15.0415 20.4992 14.1442C17.547 13.5815 14.7466 13.761 12.1661 15.4068C9.83443 17.1377 8.30209 19.3147 7.81133 22.2692C7.74653 23.2495 7.74444 24.2279 7.74277 25.2102C7.74076 25.5047 7.73858 25.7992 7.73622 26.0937C7.73038 26.8884 7.7271 27.6832 7.7243 28.478C7.72093 29.3103 7.71517 30.1427 7.70967 30.975C7.69963 32.549 7.69172 34.1231 7.68458 35.6971C7.67634 37.49 7.66572 39.2829 7.65491 41.0758C7.63272 44.762 7.61383 48.4481 7.59629 52.1343C5.11248 52.1343 2.62868 52.1343 0.0696141 52.1343C0.0550021 48.3011 0.043139 44.4679 0.0361884 40.6346C0.0328741 38.8544 0.0283618 37.0742 0.0209448 35.294C0.0144768 33.7409 0.0103436 32.1877 0.00891367 30.6345C0.00807896 29.8135 0.00614274 28.9926 0.00140262 28.1716C-0.0349689 21.611 0.608015 16.084 5.23076 11.0698C10.4458 6.12651 17.0688 4.84984 23.7249 7.11708Z" fill="#0099FF"/>
<path d="M33.0545 16.7549C33.1989 16.7549 33.3432 16.7549 33.4919 16.7549C35.3895 20.0192 35.2721 24.8875 34.3666 28.4742C32.957 32.9437 30.04 36.8806 25.8382 39.1085C21.4492 41.3338 16.5087 42.1602 11.7319 40.6369C10.7988 40.3171 9.90924 39.9292 9 39.5425C9 36.4629 9 33.3833 9 30.2104C9.57731 30.6401 10.1546 31.0699 10.7494 31.5126C11.0654 31.747 11.3837 31.9786 11.7061 32.2044C11.8476 32.3059 11.9892 32.4075 12.1349 32.5121C13.7403 33.3461 15.3796 33.5873 17.1731 33.5743C17.3736 33.5731 17.5741 33.5718 17.7806 33.5706C20.6956 33.4946 22.8366 32.1972 24.8268 30.1426C26.0831 28.6391 27.0253 26.8942 28.025 25.2189C28.2817 24.7908 28.5387 24.363 28.7957 23.9351C29.6222 22.5592 30.4472 21.1823 31.2701 19.8043C31.3488 19.6726 31.4276 19.5409 31.5087 19.4052C32.0329 18.5266 32.5459 17.6424 33.0545 16.7549Z" fill="#0099FF"/>
<path d="M41 0.672852C40.8649 4.96936 40.6172 9.25071 40.3077 13.5383C39.4164 13.3567 38.9232 13.0164 38.2163 12.4569C38.0185 12.3019 37.8207 12.147 37.6169 11.9873C37.4387 11.8403 37.2605 11.6933 37.0769 11.5419C36.938 11.4464 36.7991 11.3509 36.6559 11.2525C36.1997 10.6202 36.3713 10.0134 36.4423 9.26829C36.4673 8.9835 36.4923 8.6987 36.518 8.40528C36.6098 7.5983 36.7207 6.79907 36.8462 5.99648C36.5817 6.10856 36.3172 6.22065 36.0448 6.33614C35.6918 6.48185 35.3387 6.62741 34.9856 6.77284C34.812 6.8469 34.6384 6.92095 34.4596 6.99726C33.3761 7.43907 32.5043 7.70804 31.3077 7.5492C30.6451 7.19221 30.6451 7.19221 30.0529 6.71739C29.8533 6.56298 29.6537 6.40857 29.448 6.24949C29 5.77466 29 5.77466 29 4.88739C30.1693 4.4292 31.3388 3.97162 32.5086 3.51457C32.9054 3.35941 33.3022 3.2041 33.6989 3.04862C39.7617 0.672852 39.7617 0.672852 41 0.672852Z" fill="#3369F4"/>
</svg>
