<svg width="12" height="12" viewBox="0 0 12 12" fill="none" xmlns="http://www.w3.org/2000/svg">
<g id="icon / star">
<path id="Star 13" d="M5.13447 1.72553C5.53325 1.09149 6.46675 1.09149 6.86553 1.72553L7.82997 3.2589C7.97028 3.48198 8.19318 3.64207 8.45116 3.70504L10.2244 4.13792C10.9577 4.31691 11.2461 5.19453 10.7594 5.76538L9.58214 7.14594C9.41088 7.34678 9.32574 7.60581 9.34487 7.86781L9.47637 9.66872C9.53075 10.4134 8.77554 10.9558 8.07591 10.6745L6.38392 9.9944C6.13776 9.89545 5.86224 9.89545 5.61608 9.9944L3.92409 10.6745C3.22446 10.9558 2.46925 10.4134 2.52363 9.66872L2.65513 7.86781C2.67426 7.60581 2.58912 7.34678 2.41786 7.14594L1.24065 5.76538C0.753879 5.19453 1.04234 4.31691 1.77557 4.13792L3.54884 3.70504C3.80682 3.64207 4.02972 3.48198 4.17003 3.2589L5.13447 1.72553Z" fill="#F8A51F"/>
</g>
</svg>
